<svg width="24" height="16" viewBox="0 0 24 16" fill="none" xmlns="http://www.w3.org/2000/svg">
<g clip-path="url(#clip0_37_326)">
<path d="M7.33398 8.59935C8.13024 8.59946 8.90452 8.86184 9.53711 9.34544C10.1698 9.82914 10.6261 10.5076 10.835 11.2761L10.8545 11.3503H23C23.2387 11.3503 23.4679 11.4452 23.6367 11.614C23.8052 11.7827 23.9003 12.0113 23.9004 12.2497C23.9004 12.4884 23.8054 12.7177 23.6367 12.8865C23.4679 13.0552 23.2387 13.1501 23 13.1501H10.8545L10.835 13.2234C10.6261 13.9918 10.1697 14.6703 9.53711 15.154C8.90452 15.6376 8.13024 15.9 7.33398 15.9001C6.53756 15.9001 5.7626 15.6377 5.12988 15.154C4.49734 14.6703 4.04087 13.9918 3.83203 13.2234L3.8125 13.1501H1C0.761305 13.1501 0.532064 13.0552 0.363281 12.8865C0.19458 12.7177 0.0996094 12.4884 0.0996094 12.2497C0.099678 12.0113 0.194784 11.7827 0.363281 11.614C0.532064 11.4452 0.761305 11.3503 1 11.3503H3.8125L3.83203 11.2761C4.0409 10.5076 4.49721 9.82914 5.12988 9.34544C5.7626 8.86174 6.53756 8.59935 7.33398 8.59935ZM8.04102 10.5408C7.70297 10.4007 7.33054 10.3639 6.97168 10.4353C6.61295 10.5067 6.28306 10.6835 6.02441 10.9421C5.76588 11.2008 5.5899 11.5307 5.51855 11.8894C5.44726 12.2481 5.48408 12.6198 5.62402 12.9577C5.76405 13.2958 6.00143 13.5845 6.30566 13.7878C6.57183 13.9656 6.87861 14.0709 7.19629 14.0945L7.33301 14.1003C7.82336 14.0995 8.2939 13.9041 8.64062 13.5574C8.98727 13.2106 9.18178 12.74 9.18262 12.2497C9.18257 11.884 9.07429 11.5265 8.87109 11.2224C8.66782 10.9182 8.37905 10.6808 8.04102 10.5408ZM16.667 0.348373C17.4633 0.348373 18.2375 0.610781 18.8701 1.09447C19.5028 1.57837 19.9594 2.25739 20.168 3.02611L20.1875 3.10033H23C23.2387 3.10033 23.4679 3.19522 23.6367 3.364C23.8052 3.53269 23.9003 3.76131 23.9004 3.99974C23.9004 4.23838 23.8054 4.46769 23.6367 4.63646C23.4679 4.80524 23.2387 4.90013 23 4.90013H20.1875L20.168 4.97337C19.9594 5.74209 19.5028 6.42111 18.8701 6.90501C18.2375 7.38882 17.4634 7.65111 16.667 7.65111C15.8706 7.65111 15.0965 7.38883 14.4639 6.90501C13.8312 6.42111 13.3755 5.74209 13.167 4.97337L13.1465 4.90013H1C0.761305 4.90013 0.532064 4.80524 0.363281 4.63646C0.194579 4.46769 0.0996094 4.23837 0.0996094 3.99974C0.0996775 3.76131 0.194784 3.53269 0.363281 3.364C0.532064 3.19522 0.761305 3.10033 1 3.10033H13.1465L13.167 3.02611C13.3755 2.25746 13.8313 1.57833 14.4639 1.09447C15.0964 0.610778 15.8707 0.348375 16.667 0.348373ZM17.375 2.29076C17.037 2.15073 16.6645 2.1139 16.3057 2.18529C15.9469 2.25672 15.617 2.43348 15.3584 2.69212C15.0999 2.9508 14.9239 3.28069 14.8525 3.63939C14.7812 3.99812 14.8181 4.36983 14.958 4.70775C15.098 5.04579 15.3354 5.33455 15.6396 5.53783C15.9438 5.74105 16.3012 5.85033 16.667 5.85033C17.1574 5.84977 17.6278 5.65416 17.9746 5.30736C18.3213 4.96057 18.516 4.49013 18.5166 3.99974C18.5166 3.63397 18.4083 3.27654 18.2051 2.9724C18.0018 2.66817 17.713 2.43078 17.375 2.29076Z" fill="#2C3D5F" stroke="#FAFCFC" stroke-width="0.2"/>
</g>
<defs>
<clipPath id="clip0_37_326">
<rect width="24" height="16" fill="white"/>
</clipPath>
</defs>
</svg>
